HIERARCHY
ROOT Hips
{
	OFFSET 0.00000 0.00000 0.00000
	CHANNELS 6 Xposition Yposition Zposition Zrotation Yrotation Xrotation 
	JOINT LHipJoint
	{
		OFFSET 0 0 0
		CHANNELS 3 Zrotation Yrotation Xrotation
		JOINT LeftHip
		{
			OFFSET 1.43652 -1.81092 0.91346
			CHANNELS 3 Zrotation Yrotation Xrotation
			JOINT LeftKnee
			{
				OFFSET 2.45984 -6.75837 0.00000
				CHANNELS 3 Zrotation Yrotation Xrotation
				JOINT LeftAnkle
				{
					OFFSET 2.63718 -7.24559 0.00000
					CHANNELS 3 Zrotation Yrotation Xrotation
					JOINT LeftToe
					{
						OFFSET 0.19690 -0.54098 2.12239
						CHANNELS 3 Zrotation Yrotation Xrotation
						End Site
						{
							OFFSET 0.00000 -0.00000 1.10116
						}
					}
				}
			}
		}
	}
	JOINT RHipJoint
	{
		OFFSET 0 0 0
		CHANNELS 3 Zrotation Yrotation Xrotation
		JOINT RightHip
		{
			OFFSET -1.35116 -1.81092 0.91345
			CHANNELS 3 Zrotation Yrotation Xrotation
			JOINT RightKnee
			{
				OFFSET -2.55576 -7.02189 0.00000
				CHANNELS 3 Zrotation Yrotation Xrotation
				JOINT RightAnkle
				{
					OFFSET -2.61938 -7.19669 0.00000
					CHANNELS 3 Zrotation Yrotation Xrotation
					JOINT RightToe
					{
						OFFSET -0.32509 -0.89318 2.23646
						CHANNELS 3 Zrotation Yrotation Xrotation
						End Site
						{
							OFFSET -0.00000 -0.00000 1.19625
						}
					}
				}
			}
		}
	}
	JOINT lowerback
	{
		OFFSET 0 0 0
		CHANNELS 3 Zrotation Yrotation Xrotation
		JOINT Chest
		{
			OFFSET 0.05193 2.08077 -0.11958
			CHANNELS 3 Zrotation Yrotation Xrotation
			JOINT Chest2
			{
				OFFSET 0.04960 2.08447 0.01967
				CHANNELS 3 Zrotation Yrotation Xrotation
				JOINT lowerneck
				{
					OFFSET 0 0 0
					CHANNELS 3 Zrotation Yrotation Xrotation
					JOINT Neck
					{
						OFFSET -0.10699 1.82066 0.27584
						CHANNELS 3 Zrotation Yrotation Xrotation
						JOINT Head
						{
							OFFSET 0.14949 1.84747 -0.32279
							CHANNELS 3 Zrotation Yrotation Xrotation
							End Site
							{
								OFFSET 0.04969 1.88916 -0.14562
							}
						}
					}
				}
				JOINT LeftCollar
				{
					OFFSET 0 0 0
					CHANNELS 3 Zrotation Yrotation Xrotation
					JOINT LeftShoulder
					{
						OFFSET 3.73629 1.27211 -0.12847
CHANNELS 3 Zrotation Xrotation Yrotation
						JOINT LeftElbow
						{
OFFSET 0 -5.109950 0.000000
CHANNELS 3 Zrotation Xrotation Yrotation
							JOINT LeftWrist
							{
OFFSET 0 -3.212070 0.000000
CHANNELS 3 Zrotation Xrotation Yrotation
								JOINT lhand
								{
									OFFSET 0 0 0
CHANNELS 3 Zrotation Xrotation Yrotation
									JOINT LFingers
									{
OFFSET 0 -0.633490 0.000000
CHANNELS 3 Zrotation Xrotation Yrotation
										End Site
										{
OFFSET 0 -0.510740 0.000000
										}
									}
								}
								JOINT LThumb
								{
OFFSET 0 0.000000 0.000000
CHANNELS 3 Zrotation Xrotation Yrotation
									End Site
									{
OFFSET 0 -0.518530 0.518530
									}
								}
							}
						}
					}
				}
				JOINT RightCollar
				{
					OFFSET 0 0 0
					CHANNELS 3 Zrotation Yrotation Xrotation
					JOINT RightShoulder
					{
						OFFSET -3.70251 1.29541 -0.35354
CHANNELS 3 Zrotation Xrotation Yrotation
						JOINT RightElbow
						{
OFFSET 0 -5.251090 0.000000
CHANNELS 3 Zrotation Xrotation Yrotation
							JOINT RightWrist
							{
OFFSET 0 -3.283640 0.000000
CHANNELS 3 Zrotation Xrotation Yrotation
								JOINT rhand
								{
									OFFSET 0 0 0
CHANNELS 3 Zrotation Xrotation Yrotation
									JOINT RFingers
									{
OFFSET 0 -0.599740 0.000000
CHANNELS 3 Zrotation Xrotation Yrotation
										End Site
										{
OFFSET 0 -0.483530 0.000000
										}
									}
								}
								JOINT RThumb
								{
OFFSET 0 0.000000 0.000000
CHANNELS 3 Zrotation Xrotation Yrotation
									End Site
									{
OFFSET 0 -0.490910 0.490910
									}
								}
							}
						}
					}
				}
			}
		}
	}
}
MOTION
Frames: 5
Frame Time: 0.008333333333333333
9.368245 16.539798 -9.565406 -295.600402 -92.739071 -54.971191 0.000000 0.000000 0.000000 -2.546711 -2.496273 -37.707813 6.494340 14.890760 46.934721 0.382540 -8.370941 -11.668113 0.575089 -4.856170 -13.498738 0.000000 0.000000 0.000000 10.607517 11.896989 -34.081479 -7.501108 -15.739762 50.745024 -1.964023 9.543601 -25.152494 -0.328812 3.685457 -10.193460 -0.236550 1.972676 23.507104 2.262269 2.283765 5.365174 1.961649 0.936725 -7.294136 -3.188579 15.908920 -17.236882 -2.523295 22.260073 7.236264 1.635199 10.649561 4.815970 0.000000 0.000000 0.000000 -13.136360 -50.857311 -97.654546 67.468230 -57.992062 40.618547 24.347754 -0.759680 -0.842248 0.000000 0.000000 0.000000 -7.125000 0.000000 0.000000 -1.766870 30.901435 -0.608956 0.000000 0.000000 0.000000 -14.124801 -27.716286 45.643760 -140.520052 -47.757261 -101.946280 -32.099221 -33.054152 -12.118393 0.000000 0.000000 0.000000 7.125000 0.000000 0.000000 -3.359521 15.773221 -2.323962
9.402631 16.530633 -9.570470 -299.574548 -92.697234 -50.882910 0.000000 0.000000 0.000000 -2.786834 -2.356735 -37.692631 6.373424 14.780564 46.462396 0.419695 -8.111338 -12.049344 0.537797 -4.698367 -13.050326 0.000000 0.000000 0.000000 10.404686 11.837154 -34.556039 -7.563972 -15.788968 50.976403 -1.950335 9.834703 -25.072284 -0.327026 3.675523 -10.165537 -0.416074 1.893873 23.622276 2.287633 2.145126 5.306232 2.131151 0.874988 -7.420767 -3.235708 16.073659 -17.209225 -2.577913 22.499612 7.281267 1.645251 10.760714 4.825553 0.000000 0.000000 0.000000 -15.597401 -52.735891 -100.534587 67.269135 -57.954663 40.449698 24.248181 -0.441107 -0.704671 0.000000 0.000000 0.000000 -7.125000 0.000000 0.000000 -1.842564 30.749743 -0.641724 0.000000 0.000000 0.000000 -14.620551 -28.514978 43.764859 -141.803884 -46.961580 -102.890368 -32.568933 -32.243339 -12.199217 0.000000 0.000000 0.000000 7.125000 0.000000 0.000000 -3.671441 15.611486 -2.553456
9.434676 16.522342 -9.575295 -303.687402 -92.677548 -46.669809 0.000000 0.000000 0.000000 -3.039440 -2.148059 -37.653665 6.248188 14.664511 45.969620 0.456336 -7.877713 -12.429878 0.508119 -4.568987 -12.683374 0.000000 0.000000 0.000000 10.222692 11.785497 -34.991065 -7.621204 -15.833430 51.186527 -1.937648 10.077117 -25.000025 -0.329651 3.690154 -10.206521 -0.585701 1.819371 23.744873 2.293526 2.011904 5.250884 2.272777 0.815888 -7.545383 -3.239245 16.232542 -17.152294 -2.664935 22.722950 7.296020 1.636553 10.864440 4.829925 0.000000 0.000000 0.000000 -18.268282 -54.379729 -103.536352 66.895502 -57.883538 40.133082 24.233902 0.000698 -0.492408 0.000000 0.000000 0.000000 -7.125000 0.000000 0.000000 -1.848656 30.516988 -0.654139 0.000000 0.000000 0.000000 -15.063834 -29.249129 41.944668 -142.973726 -46.204399 -103.740459 -33.046177 -31.601476 -12.317217 0.000000 0.000000 0.000000 7.125000 0.000000 0.000000 -3.983015 15.403291 -2.789008
9.463845 16.515227 -9.579039 -308.238845 -92.693568 -42.025678 0.000000 0.000000 0.000000 -3.289618 -1.893202 -37.588061 6.123413 14.546843 45.474930 0.491340 -7.678639 -12.797760 0.487471 -4.476972 -12.422437 0.000000 0.000000 0.000000 10.052288 11.760087 -35.385021 -7.670343 -15.871310 51.366409 -1.925058 10.288153 -24.928434 -0.334065 3.714323 -10.274277 -0.741504 1.749451 23.860498 2.278436 1.885131 5.200679 2.382307 0.759628 -7.659076 -3.171789 16.399408 -17.106625 -2.813303 22.951853 7.332234 1.607187 10.966320 4.858295 0.000000 0.000000 0.000000 -21.107176 -55.765168 -106.597887 66.312605 -57.769769 39.639679 24.336839 0.576908 -0.179465 0.000000 0.000000 0.000000 -7.125000 0.000000 0.000000 -1.760309 30.174282 -0.637213 0.000000 0.000000 0.000000 -15.441171 -29.911395 40.219602 -144.042090 -45.483559 -104.507309 -33.501333 -31.206393 -12.472404 0.000000 0.000000 0.000000 7.125000 0.000000 0.000000 -4.273678 15.152286 -3.016666
9.489590 16.510029 -9.580699 -313.143938 -92.755184 -37.032776 0.000000 0.000000 0.000000 -3.507664 -1.649868 -37.510563 6.010349 14.438243 45.023100 0.519594 -7.538085 -13.095536 0.475435 -4.422011 -12.266920 0.000000 0.000000 0.000000 9.885064 11.768510 -35.735409 -7.709570 -15.901407 51.509565 -1.912227 10.477052 -24.855891 -0.339013 3.741679 -10.351085 -0.833811 1.670614 23.957594 2.216003 1.757282 5.156344 2.404340 0.701412 -7.752589 -3.068647 16.567012 -17.090476 -2.981145 23.179653 7.390504 1.573178 11.064978 4.905063 0.000000 0.000000 0.000000 -24.008339 -56.865696 -109.628241 65.532279 -57.611899 38.980328 24.538049 1.254163 0.242649 0.000000 0.000000 0.000000 -7.125000 0.000000 0.000000 -1.594154 29.711111 -0.594391 0.000000 0.000000 0.000000 -15.707052 -30.485055 38.637480 -145.016827 -44.798536 -105.197967 -33.960720 -31.127526 -12.678727 0.000000 0.000000 0.000000 7.125000 0.000000 0.000000 -4.558902 14.837434 -3.250228
